<svg viewBox="0 0 64 100" xmlns="http://www.w3.org/2000/svg" xmlns:xlink="http://www.w3.org/1999/xlink" width="64.000000" height="100.000122" fill="none" customFrame="#000000">
	<g id="empty state">
		<g id="Group 1514">
			<path id="Vector 5120" d="M64 47.2298L31.9833 65.7958L0 47.2138L32 28.6478L64 47.2298Z" fill="rgb(249,171,67)" fill-rule="nonzero" />
			<path id="Vector 5121" d="M31.9833 100L31.9833 65.7959L0 47.2139L0 81.4181L31.9833 100Z" fill="rgb(253,156,62)" fill-rule="nonzero" />
			<path id="Vector 5122" d="M64.0001 81.4339L64.0001 47.2297L31.9834 65.7798L31.9834 99.984L64.0001 81.4339Z" fill="rgb(249,143,56)" fill-rule="nonzero" />
			<path id="Vector 5123" d="M40.0736 36.4522C33.5789 34.5601 26.2508 34.9647 21.5531 37.4832C17.025 39.9106 15.1646 44.2062 18.4952 47.952C21.6585 51.5086 28.7963 52.803 34.4116 51.7065C39.6493 50.6843 43.7991 47.146 40.8579 43.6332C39.4471 41.9487 36.3972 40.478 33.2316 40.5666C30.6694 40.6384 28.3681 41.7708 28.1477 43.2757C27.9391 44.6994 29.9977 46.5363 32.7534 46.522C34.8794 46.5108 36.0832 45.2532 35.0507 44.0977C34.8739 43.899 34.3148 44.0083 34.471 44.2142C35.7121 45.8517 32.3077 46.4454 30.4259 45.2971C29.2269 44.5653 28.9422 43.5471 29.556 42.7475C30.6726 41.2927 33.7542 40.8012 36.4345 41.6782C42.9601 43.8128 40.911 48.6071 36.5003 50.3379C32.6091 51.8653 26.4197 51.9124 22.2001 49.7458C17.6856 47.4277 17.0654 43.571 18.9782 40.8786C23.327 34.7588 38.7017 34.1914 46.4263 40.4405C49.9798 43.3148 50.6054 46.5515 49.1289 49.5399C47.5706 52.6936 44.5453 55.9287 39.4883 57.4377C34.4013 58.9554 27.9026 58.1949 22.6918 56.105C16.7625 53.727 11.6032 50.306 10.003 46.4836C9.9308 46.3113 9.50892 46.3655 9.56998 46.5323C11.1552 50.9236 16.7062 54.8945 23.913 57.3092C29.9922 59.3456 37.0015 59.5268 42.0466 57.3882C47.5413 55.0596 51.4857 50.3611 51.1566 46.0982C50.8584 42.2352 46.3589 38.2828 40.0736 36.4522Z" fill="rgb(244,235,234)" fill-rule="nonzero" />
			<path id="Vector 5124" d="M60.4705 62.5927C59.0748 62.5855 54.3104 64.5054 51.1836 65.965C50.0528 62.8728 47.225 58.6689 47.225 58.6689C47.225 58.6689 44.4312 66.3177 43.2853 70.33C40.5637 72.6792 36.9128 75.7731 34.9834 77.7864C36.6138 79.1605 39.0729 80.4389 41.0039 81.2951C40.107 84.3562 38.5273 91.9419 38.4425 93.6735C41.8357 90.8989 46.1148 85.4822 47.091 84.4089C47.995 84.6618 53.527 85.2492 54.6752 84.9116C54.7902 82.1945 53.8806 74.9878 53.6047 73.4485C54.4564 72.3473 59.0748 65.5755 60.4705 62.5927ZM52.5809 73.1421C52.9243 75.5137 53.6221 82.0891 53.6451 83.7258C51.9632 83.4202 48.0901 83.2486 47.225 82.9478C46.5596 83.6915 42.8817 87.8171 42.1521 88.6502C41.7311 89.1306 40.1022 91.2109 39.674 91.3522C39.5741 90.5302 41.8119 81.5169 42.0023 80.4788C40.3385 79.581 38.0127 78.3242 36.3141 77.5047C38.5503 75.5855 41.237 73.1269 43.6652 71.1806C44.7627 67.1508 46.5589 61.912 47.3082 60.0343C48.1242 61.6957 50.2804 66.206 50.7166 67.3966C52.1432 66.909 57.3905 64.3834 59.0732 63.8359C57.7037 66.0599 54.316 71.017 52.5809 73.1421Z" fill="rgb(244,235,234)" fill-rule="nonzero" />
			<g id="Group 1515">
				<path id="Vector 5125" d="M17.9081 60.423C17.1087 59.5524 15.667 58.5788 14.813 58.0697C13.9589 57.5869 12.5172 56.8847 11.7179 56.8264C7.39842 56.5112 7.36671 62.2735 7.46503 64.1958C7.60937 67.0143 8.60933 69.3684 9.61486 72.2348C11.0399 76.2981 10.4634 81.2209 10.4634 84.8366C10.8551 85.4758 13.3721 86.9162 14.2809 87.4141C14.4538 87.5091 14.6338 87.6224 14.813 87.7261C14.9922 87.8299 15.1722 87.9256 15.3451 88.0326C16.2539 88.5904 18.7709 90.0754 19.1626 89.8911C19.1626 86.2754 18.5861 80.6815 20.0103 78.274C21.0158 76.5758 22.0158 75.3829 22.1601 72.7327C22.2593 70.9261 22.2276 65.1271 17.9081 60.423ZM14.8122 86.581C14.5838 86.4414 12.3832 85.1207 11.2984 84.369C11.4538 82.5632 11.5546 80.0208 11.4451 78.2468C12.2112 78.7592 12.9835 79.1773 13.7504 79.6242C14.1017 79.8293 14.4609 80.0806 14.8122 80.2754C15.1635 80.4892 15.5227 80.6544 15.874 80.8579C16.6409 81.3016 17.4132 81.7804 18.1793 82.1586C18.0691 83.8049 18.1706 86.4646 18.326 88.4516C17.2412 87.9432 15.0406 86.7071 14.8122 86.581ZM19.7994 76.7618C18.92 78.037 18.4624 79.5548 18.261 81.288C17.4688 80.7318 16.6686 80.2793 15.874 79.7973C15.5219 79.5835 15.1635 79.3233 14.8122 79.1215C14.4617 78.9156 14.1033 78.7592 13.7504 78.5637C12.9558 78.1232 12.1556 77.6452 11.3634 77.2813C11.162 75.3142 10.7045 73.265 9.82502 70.9676C8.7164 68.0733 7.98763 65.3969 8.15337 62.726C8.27153 60.8132 8.9654 59.6537 9.74413 58.7727C11.0883 57.2534 14.1532 58.6411 14.8114 59.0241C15.4704 59.4071 18.5345 61.5801 19.8787 64.6611C20.6582 66.447 21.3513 68.4132 21.4694 70.4633C21.636 73.3257 20.9072 75.1554 19.7994 76.7618Z" fill="rgb(244,235,234)" fill-rule="nonzero" />
				<path id="Vector 5126" d="M12.0576 68.7013C12.0957 68.655 12.1306 68.6007 12.1536 68.5281C12.2741 68.1554 12.1694 67.5944 11.9791 67.1053C11.6278 66.2028 10.8665 65.479 10.5549 66.2123C10.3376 66.7231 10.5255 67.7293 11.4589 68.6263C11.5477 68.7116 11.6318 68.7603 11.7119 68.7883C12.0949 70.1584 12.516 71.5246 12.8007 72.8995C13.2241 74.9432 13.3819 76.8591 13.5112 78.8062C13.5374 79.206 13.9616 79.4678 13.9664 79.0704C13.9973 76.0699 13.393 72.0712 12.0576 68.7013Z" fill="rgb(244,235,234)" fill-rule="nonzero" />
				<path id="Vector 5127" d="M17.4572 71.8389C17.4192 71.748 17.3843 71.6538 17.3613 71.5541C17.2408 71.041 17.3454 70.6021 17.5357 70.3347C17.887 69.84 18.6483 70.0012 18.96 71.0968C19.1773 71.8597 18.9893 72.6473 18.056 72.4598C17.9671 72.4422 17.8831 72.3927 17.803 72.3281C17.42 73.2538 16.9997 74.1308 16.7142 75.1745C16.2907 76.7258 16.1329 78.459 16.0037 80.2553C15.9767 80.6248 15.5533 80.3934 15.5485 79.9912C15.5176 76.9533 16.1218 73.656 17.4572 71.8389Z" fill="rgb(244,235,234)" fill-rule="nonzero" />
				<path id="Vector 5128" d="M16.3301 82.8743C15.6227 82.4307 14.9138 82.0069 14.2056 81.596C13.8234 81.3741 13.4087 81.0485 13.0312 80.9225C12.8901 80.8754 12.8647 81.2672 12.9931 81.3845C13.3777 81.7356 13.8115 81.9208 14.2056 82.1713C14.913 82.6214 15.6219 83.0587 16.3301 83.4768C16.6195 83.6468 16.6179 83.0547 16.3301 82.8743Z" fill="rgb(244,235,234)" fill-rule="nonzero" />
				<path id="Vector 5129" d="M16.3301 85.0345C15.6227 84.5916 14.9138 84.1671 14.2056 83.7561C13.8234 83.5343 13.4087 83.2087 13.0312 83.0826C12.8901 83.0356 12.8647 83.4274 12.9931 83.5447C13.3777 83.8958 13.8115 84.0801 14.2056 84.3315C14.913 84.7815 15.6219 85.2197 16.3301 85.637C16.6195 85.8069 16.6179 85.2148 16.3301 85.0345Z" fill="rgb(244,235,234)" fill-rule="nonzero" />
			</g>
		</g>
		<g id="Group 1516">
			<path id="Vector 5130" d="M48.5293 28.0709L30.7923 38.3474L13.0742 28.0541L30.8113 17.7776L48.5293 28.0709Z" fill="rgb(255,94,76)" fill-rule="nonzero" />
			<path id="Vector 5131" d="M30.7923 57.2964L30.7923 38.3473L13.0742 28.0541L13.0742 47.0023L30.7923 57.2964Z" fill="rgb(247,79,67)" fill-rule="nonzero" />
			<path id="Vector 5132" d="M48.5291 47.0199L48.5291 28.0708L30.792 38.3473L30.792 57.2963L48.5291 47.0199Z" fill="rgb(239,67,53)" fill-rule="nonzero" />
			<g id="Group 1517">
				<path id="Vector 5133" d="M38.1902 36.5957C38.6065 36.1425 39.3574 35.6357 39.8023 35.37C40.2472 35.1186 40.9974 34.7531 41.4145 34.7228C43.6642 34.5584 43.6809 37.5597 43.6294 38.5603C43.554 40.0278 43.033 41.2536 42.5096 42.7466C41.7674 44.8629 42.0679 47.4268 42.0679 49.3093C41.8641 49.642 40.5533 50.3921 40.0799 50.6515C39.9895 50.701 39.8959 50.76 39.8023 50.8143C39.7087 50.8685 39.6152 50.918 39.5248 50.9739C39.0513 51.2644 37.7405 52.0376 37.5367 51.9419C37.5367 50.0586 37.8372 47.1459 37.095 45.8923C36.5716 45.0081 36.0506 44.3865 35.9753 43.0068C35.9238 42.0651 35.9404 39.0455 38.1902 36.5957ZM39.8023 50.2174C39.9213 50.1448 41.0672 49.4569 41.6318 49.0651C41.5509 48.1251 41.4978 46.8012 41.5557 45.8771C41.1568 46.1437 40.7547 46.3615 40.3551 46.5945C40.1727 46.7014 39.9855 46.8323 39.8023 46.9336C39.6191 47.0446 39.432 47.1308 39.2496 47.2369C38.8499 47.4683 38.4479 47.7173 38.049 47.9144C38.1061 48.7722 38.0537 50.1567 37.9729 51.1917C38.5375 50.9268 39.6834 50.2828 39.8023 50.2174ZM37.2052 45.1039C37.6636 45.7678 37.9015 46.5586 38.0062 47.4612C38.4185 47.1715 38.8356 46.9361 39.2488 46.6847C39.432 46.573 39.6191 46.4381 39.8015 46.3328C39.9839 46.2259 40.1711 46.1445 40.3543 46.0423C40.7682 45.8133 41.1845 45.5643 41.5969 45.3744C41.7016 44.3498 41.9395 43.2829 42.3978 42.0867C42.9751 40.5793 43.3542 39.186 43.2685 37.7943C43.2067 36.7984 42.8459 36.1943 42.4398 35.7355C41.7396 34.9447 40.1441 35.6669 39.8007 35.8664C39.4574 36.0659 37.8618 37.1974 37.1616 38.8022C36.7556 39.7326 36.3948 40.7564 36.3329 41.8234C36.2481 43.3148 36.6279 44.2676 37.2052 45.1039Z" fill="rgb(244,235,234)" fill-rule="nonzero" />
				<path id="Vector 5134" d="M41.2367 40.9065C41.2169 40.8826 41.1986 40.8538 41.1867 40.8163C41.1241 40.6224 41.1788 40.3303 41.2779 40.0758C41.4611 39.6058 41.8568 39.2291 42.0194 39.6105C42.1328 39.8763 42.0344 40.4005 41.5483 40.8674C41.5015 40.9121 41.4579 40.9368 41.4167 40.952C41.2176 41.6654 40.998 42.3772 40.8497 43.093C40.6292 44.1567 40.5468 45.155 40.4794 46.1684C40.4659 46.3767 40.2446 46.5132 40.2423 46.3065C40.2264 44.744 40.5412 42.6613 41.2367 40.9065Z" fill="rgb(244,235,234)" fill-rule="nonzero" />
				<path id="Vector 5135" d="M38.4249 42.5399C38.4448 42.4929 38.463 42.4434 38.4749 42.3915C38.5375 42.1242 38.4828 41.896 38.3837 41.7563C38.2005 41.4986 37.8048 41.5824 37.6423 42.1529C37.5288 42.5503 37.6272 42.9605 38.1133 42.8631C38.1601 42.8536 38.2037 42.828 38.2449 42.7945C38.444 43.2765 38.6636 43.7329 38.8119 44.2772C39.0324 45.0847 39.1149 45.9873 39.1823 46.9233C39.1965 47.1156 39.417 46.9951 39.4194 46.7861C39.4352 45.2036 39.1204 43.4864 38.4249 42.5399Z" fill="rgb(244,235,234)" fill-rule="nonzero" />
				<path id="Vector 5136" d="M39.0116 48.2871C39.3804 48.0565 39.7491 47.8354 40.1179 47.6216C40.3169 47.5058 40.5334 47.3367 40.7293 47.2712C40.8022 47.2465 40.8157 47.4508 40.7491 47.5114C40.5492 47.6942 40.3232 47.7907 40.1179 47.9208C39.7491 48.1554 39.3804 48.3828 39.0116 48.6007C38.861 48.6893 38.8618 48.3813 39.0116 48.2871Z" fill="rgb(244,235,234)" fill-rule="nonzero" />
				<path id="Vector 5137" d="M39.0116 49.4122C39.3804 49.1816 39.7491 48.9605 40.1179 48.7467C40.3169 48.631 40.5334 48.4618 40.7293 48.3964C40.8022 48.3716 40.8157 48.5759 40.7491 48.6365C40.5492 48.8193 40.3232 48.9159 40.1179 49.0459C39.7491 49.2805 39.3804 49.508 39.0116 49.7258C38.861 49.8144 38.8618 49.5064 39.0116 49.4122Z" fill="rgb(244,235,234)" fill-rule="nonzero" />
			</g>
			<g id="Group 1518">
				<path id="Vector 5138" d="M22.0081 34.8625C20.6362 33.7102 18.6886 33.1971 18.1192 34.7907C17.7362 35.8616 18.1874 37.507 19.1335 38.3776C19.4459 38.6657 19.5546 38.1949 19.2794 37.8071C19.1097 37.5677 18.9194 37.3578 18.8313 37.1679C18.1264 35.6422 18.8853 34.4092 20.0692 34.7284C20.4935 34.8426 20.9146 34.9814 21.3467 35.2312C22.5473 35.9605 23.6409 37.6531 23.6734 39.423C23.717 41.793 21.9542 41.3589 20.9066 42.0388C19.8971 42.694 19.4626 44.7009 20.9296 46.5211C21.315 46.9991 21.6235 46.4725 21.2674 45.9426C19.6814 43.5813 21.8091 42.7618 22.3721 42.5623C22.748 42.4291 23.1532 42.3461 23.4712 42.0795C23.9121 41.71 24.2047 41.1379 24.2832 40.3176C24.4609 38.4519 23.4482 36.0722 22.0081 34.8625Z" fill="rgb(255,255,255)" fill-rule="nonzero" />
				<path id="Vector 5139" d="M21.9194 48.7212C21.7101 48.1882 21.3358 47.7445 20.9742 47.5753C20.6427 47.4205 20.1653 47.4915 20.0535 48.3095C19.9211 49.2854 20.5666 50.3707 21.2953 50.6045C22.04 50.8431 22.3286 49.765 21.9194 48.7212ZM21.331 49.706C21.1217 49.8161 20.726 49.4634 20.6292 49.0604C20.5753 48.8354 20.6078 48.6 20.6998 48.5002C20.8195 48.3717 21.128 48.4348 21.308 48.7093C21.5372 49.0556 21.5451 49.5934 21.331 49.706Z" fill="rgb(255,255,255)" fill-rule="nonzero" />
			</g>
		</g>
		<g id="Group 1519">
			<g id="Group 1520">
				<path id="Vector 5140" d="M57.5733 10.2933L39.8362 20.5705L22.1182 10.2765L39.8552 0L57.5733 10.2933Z" fill="rgb(116,202,206)" fill-rule="nonzero" />
				<path id="Vector 5141" d="M39.8362 39.5188L39.8362 20.5705L22.1182 10.2765L22.1182 29.2255L39.8362 39.5188Z" fill="rgb(83,183,183)" fill-rule="nonzero" />
				<path id="Vector 5142" d="M57.5735 29.2423L57.5735 10.2932L39.8364 20.5705L39.8364 39.5188L57.5735 29.2423Z" fill="rgb(66,168,165)" fill-rule="nonzero" />
			</g>
			<path id="Vector 5143" d="M36.7456 26.1757C36.0319 23.2646 34.2643 20.5387 32.2738 19.2898C30.3555 18.0857 28.316 18.3179 27.6292 20.4222C26.9774 22.4203 28.059 25.4471 29.7124 27.3623C31.254 29.149 33.5109 29.9629 34.1953 28.0589C34.5236 27.146 34.4094 25.6506 33.6782 24.4544C33.0867 23.4864 32.1501 22.852 31.5308 23.0986C30.9448 23.3324 30.7013 24.5278 31.3143 25.5828C31.7869 26.3967 32.5292 26.5826 32.7401 25.9307C32.7766 25.819 32.6117 25.6282 32.5681 25.7336C32.2207 26.5707 31.2453 25.3944 31.2659 24.4185C31.2794 23.7968 31.603 23.4625 32.0415 23.5223C32.8393 23.6309 33.7044 24.7058 33.9629 25.9291C34.591 28.9056 32.3214 29.1753 30.6934 27.8626C29.2565 26.7047 27.8743 24.3379 27.7672 22.24C27.6522 19.9953 28.9773 18.9068 30.4206 19.0488C33.7005 19.3704 37.3031 25.1511 36.6354 29.4945C36.3285 31.4927 35.2381 32.4463 33.7798 32.5372C32.2405 32.6338 30.3469 32.1845 28.6601 30.575C26.9639 28.9558 25.8204 26.2921 25.4644 23.8304C25.0599 21.0294 25.2201 18.2939 26.3176 16.8368C26.3668 16.7713 26.2534 16.6213 26.2034 16.6812C24.8871 18.2572 24.604 21.2648 25.2764 24.5645C25.8434 27.3479 27.3192 30.0802 29.2422 31.5469C31.3365 33.1445 33.9875 33.6233 35.5315 32.5579C36.9287 31.5924 37.4363 28.9934 36.7456 26.1757Z" fill="rgb(244,235,234)" fill-rule="nonzero" />
			<path id="Vector 5144" d="M45.3384 4.1886C44.1085 4.42402 40.8912 5.79656 38.8802 6.75574C36.3283 6.04313 31.7257 5.29302 31.7257 5.29302C31.7257 5.29302 33.1262 8.00778 34.1428 9.37791C32.9367 10.5286 31.288 12.056 30.6084 12.9737C32.7328 13.099 35.5377 13.0543 37.6661 12.9769C38.4203 14.0254 40.8563 16.5159 41.6549 17.037C43.2369 15.6477 44.2663 13.3336 44.5827 12.8532C45.5041 12.7734 50.6594 12.0041 51.4984 11.7104C50.2296 10.8949 45.7991 8.93983 44.7809 8.53604C44.9712 8.06842 45.616 5.3002 45.3384 4.1886ZM43.7247 8.61984C45.221 9.25583 49.1488 11.0625 49.9941 11.5381C48.3621 11.7352 44.8737 12.3433 43.9626 12.4023C43.7532 12.7335 42.601 14.5673 42.3805 14.9351C42.2528 15.1474 41.8706 16.034 41.5653 16.1481C41.0633 15.9246 38.4861 12.9043 38.1308 12.5683C36.2173 12.5883 33.5409 12.6162 31.6354 12.6649C32.6322 11.7224 33.7535 10.5454 34.9057 9.56229C33.8391 8.19532 32.7765 6.35596 32.4878 5.67847C34.0413 6.0264 38.2093 6.98 39.1927 7.25451C40.2006 6.86907 43.5367 5.2364 44.7389 4.79031C44.6548 5.67526 44.1782 7.70294 43.7247 8.61984Z" fill="rgb(244,235,234)" fill-rule="nonzero" />
			<g id="Group 1521">
				<path id="Vector 5145" d="M49.8367 16.2614C48.4648 16.7034 46.5172 18.4535 45.9478 20.7078C45.5648 22.2231 46.016 23.3443 46.9621 23.1161C47.2745 23.0403 47.3832 22.4442 47.108 22.3764C46.9383 22.3349 46.748 22.3452 46.66 22.2582C45.955 21.552 46.7139 19.4365 47.8978 18.3808C48.3221 18.0018 48.7432 17.6523 49.1753 17.3993C50.376 16.7337 51.4695 17.1559 51.502 18.8875C51.5456 21.2065 49.7828 22.8216 48.7352 24.7184C47.7258 26.5474 47.2912 29.0587 48.7582 29.1736C49.1436 29.2039 49.4521 28.3189 49.0961 28.2024C47.5101 27.6846 49.6377 24.3921 50.2007 23.539C50.5766 22.9692 50.9818 22.4146 51.2998 21.7786C51.7407 20.8969 52.0333 19.9848 52.1118 19.0727C52.2895 17.0003 51.2768 15.7977 49.8367 16.2614Z" fill="rgb(255,255,255)" fill-rule="nonzero" />
				<path id="Vector 5146" d="M49.748 30.2231C49.5387 29.9326 49.1644 29.9238 48.8028 30.176C48.4705 30.4066 47.9939 31.0322 47.8821 31.9795C47.7497 33.1102 48.3952 33.4454 49.1239 32.8317C49.8686 32.2053 50.1572 30.7904 49.748 30.2231ZM49.1604 31.8909C48.9511 32.2444 48.5554 32.3513 48.4586 32.06C48.4047 31.898 48.4372 31.6251 48.5292 31.4177C48.6489 31.1503 48.9574 30.8551 49.1374 30.9197C49.3658 31.0011 49.3737 31.5302 49.1604 31.8909Z" fill="rgb(255,255,255)" fill-rule="nonzero" />
			</g>
		</g>
	</g>
</svg>
