<svg viewBox="0 0 67 84" xmlns="http://www.w3.org/2000/svg" xmlns:xlink="http://www.w3.org/1999/xlink" width="67.000008" height="84.000000" fill="none" customFrame="#000000">
	<g id="export import">
		<ellipse id="Oval 5" rx="32.773651" ry="17.824202" cx="34.2263489" cy="66.175766" fill="rgb(221,221,221)" />
		<path id="Vector 931" d="M63.3523 32.8093L55.4315 37.3302L31.6762 23.7544L39.5971 19.2263L63.3523 32.8093Z" fill="rgb(243,231,209)" fill-rule="nonzero" />
		<path id="Vector 932" d="M31.6761 50.9133L31.6761 78.0662L7.9209 64.4892L7.9209 46.3853L23.7553 55.4402L31.6761 50.9133Z" fill="rgb(223,206,190)" fill-rule="nonzero" />
		<path id="Vector 933" d="M55.4315 46.3853L55.4315 64.4892L31.6762 78.0662L31.6762 50.9133L39.5971 55.4402L55.4315 46.3853Z" fill="rgb(161,139,120)" fill-rule="nonzero" />
		<path id="Vector 934" d="M31.6761 50.9133L23.7553 55.4402L7.92085 46.3853L0 41.8584L7.92085 37.3303L31.6761 50.9133Z" fill="rgb(243,231,209)" fill-rule="nonzero" />
		<path id="Vector 935" d="M55.4315 37.3302L31.6762 50.9133L31.6762 23.7544L55.4315 37.3302Z" fill="rgb(226,209,176)" fill-rule="nonzero" />
		<path id="Vector 936" d="M63.682 41.6659L55.4315 46.3853L39.5971 55.4402L31.6762 50.9133L55.4315 37.3303L63.682 41.6659Z" fill="rgb(243,231,209)" fill-rule="nonzero" />
		<path id="Vector 937" d="M31.6761 23.7544L31.6761 50.9133L7.9209 37.3302L31.6761 23.7544Z" fill="rgb(208,179,151)" fill-rule="nonzero" />
		<path id="Vector 938" d="M31.6761 23.7544L7.92085 37.3302L0 32.8093L23.7553 19.2263L31.6761 23.7544Z" fill="rgb(243,231,209)" fill-rule="nonzero" />
		<path id="Vector 939" d="M21.262 62.53L28.4463 66.6361L28.4463 72.7959L21.262 68.6898L21.262 62.53Z" fill="rgb(238,235,212)" fill-rule="nonzero" />
		<path id="Vector 940" d="M31.7281 34.5067L35.697 32.2379L35.697 41.3048L43.6299 36.7719L43.6299 27.7038L47.5927 25.4398L39.661 20.9058L31.7281 34.5067Z" fill="rgb(0,96,89)" fill-rule="nonzero" />
		<path id="Vector 941" d="M30.9216 34.1255L30.9216 38.6536L35.697 41.3049L35.697 32.238L31.7281 34.5069L30.9216 34.1255Z" fill="rgb(123,174,143)" fill-rule="nonzero" />
		<path id="Vector 942" d="M27.0746 31.7814L27.7653 32.238L27.7653 32.2428L31.7281 34.5068L39.661 20.9059L35.0015 18.1804L27.0746 31.7814Z" fill="rgb(179,213,116)" fill-rule="nonzero" />
		<path id="Vector 943" d="M7.92094 46.3853L7.90161 47.8448L25.4071 58.6127L31.6762 50.9133L23.7554 55.4402L7.92094 46.3853Z" fill="rgb(198,184,171)" fill-rule="nonzero" />
		<path id="Vector 944" d="M14.906 18.5353L22.7906 23.0179L30.2973 9.56762L26.3393 11.8316L26.3393 7.30836L26.3345 2.76953L18.3955 7.30238L18.4402 16.349L14.906 18.5353Z" fill="rgb(0,96,89)" fill-rule="nonzero" />
		<path id="Vector 945" d="M26.3393 7.30859L26.3393 11.8319L30.2973 9.56785L26.3393 7.30859Z" fill="rgb(123,174,143)" fill-rule="nonzero" />
		<path id="Vector 946" d="M9.62091 15.6197L14.9059 18.5352L18.4401 16.3489L13.556 13.3665L9.62091 15.6197Z" fill="rgb(123,174,143)" fill-rule="nonzero" />
		<path id="Vector 947" d="M13.5983 4.53883L18.3955 7.30253L26.3344 2.76968L21.5143 0L13.5983 4.53883Z" fill="rgb(179,213,116)" fill-rule="nonzero" />
		<path id="Vector 948" d="M13.5814 13.3688L18.4401 16.3489L18.3955 7.30228L13.5983 4.53857L13.5814 13.3688Z" fill="rgb(123,174,143)" fill-rule="nonzero" />
		<path id="Vector 949" d="M31.6762 50.9133L39.9545 58.706L55.4315 47.8448L55.4315 46.3853L39.5971 55.4402L31.6762 50.9133Z" fill="rgb(144,126,107)" fill-rule="nonzero" />
	</g>
</svg>
