<svg viewBox="0 0 90 84" xmlns="http://www.w3.org/2000/svg" xmlns:xlink="http://www.w3.org/1999/xlink" width="90.000000" height="84.000000" fill="none" customFrame="#000000">
	<g id="international shipping">
		<ellipse id="Oval 11" rx="44.643257" ry="20.957350" cx="44.6432571" cy="58.0711212" opacity="0.670000017" fill="rgb(221,221,221)" />
		<path id="Vector 976" d="M89.9296 60.5872C89.8755 60.5862 59.3104 58.0598 47.4818 50.0277C35.643 41.9896 8.9585 26.5258 8.9585 26.5258C8.9585 26.5258 -0.958376 19.5105 8.4257 14.2801C18.9366 8.42082 29.7384 14.5858 29.7384 14.5858C29.7384 14.5858 60.4199 27.9845 74.4082 34.7874C88.3843 41.5843 89.9276 60.5557 89.9296 60.5872Z" fill="rgb(103,110,117)" fill-rule="nonzero" />
		<g id="Group 88">
			<path id="Vector 977" d="M4.45728 19.1928L4.45728 19.1877L4.45728 19.1928Z" fill="rgb(64,64,65)" fill-rule="nonzero" />
			<path id="Vector 978" d="M4.45731 42.6053L4.45731 20.0684C4.78905 23.5912 8.97379 26.5219 8.97379 26.5219C8.97379 26.5219 35.643 41.9897 47.4818 50.0279C59.3104 58.059 89.8908 60.5822 89.9449 60.5833L89.9449 83.9918C89.9449 83.9938 89.9449 83.9989 89.9449 83.9989L89.9459 83.9999L89.9449 83.9999L89.9438 83.9999C89.8897 83.9989 56.873 83.1121 45.0444 75.0811C33.2056 67.0429 8.97276 49.9385 8.97276 49.9385C8.97276 49.9385 4.07251 46.5071 4.45731 42.6053Z" fill="rgb(64,64,65)" fill-rule="nonzero" />
		</g>
		<path id="Vector 979" d="M73.1313 33.9231C58.7673 26.3868 30.7702 14.9913 29.8159 14.5982C29.8006 14.5911 29.7863 14.584 29.771 14.5758C29.2453 14.2711 19.8623 8.03092 9.83417 14.1248C7.10591 15.7826 5.92909 19.8124 6.52412 22.2067C4.8696 21.2559 4.5246 20.7662 4.4552 20.5428C4.4552 20.5428 6.24546 11.7488 11.4877 9.84518C22.5222 5.83777 30.0629 11.0042 30.5008 11.2612C30.513 11.2673 30.5253 11.2734 30.5375 11.2805C31.4102 11.6706 59.7615 24.5999 73.5426 31.3013C87.2411 37.963 89.8856 54.9486 89.9418 55.6139C89.9418 55.6281 90 60.37 90 60.37C89.9969 60.5041 89.9285 60.628 89.8152 60.7021C89.5652 60.8647 89.2304 60.7154 89.1885 60.4218C88.6925 56.9385 85.41 40.3665 73.1313 33.9231Z" fill="rgb(35,31,32)" fill-rule="nonzero" />
		<path id="Vector 980" d="M4.38892 25.7734L4.45729 20.5439C11.5938 27.5419 34.658 40.3646 48.3095 47.9172C60.825 54.841 89.8908 55.6141 89.9449 55.6161L89.9459 60.8211C89.8918 60.8201 60.4351 58.1089 47.4818 52.0333C32.6544 45.078 4.38892 25.7734 4.38892 25.7734Z" fill="rgb(66,66,66)" fill-rule="nonzero" />
		<path id="Vector 981" d="M4.38892 40.9871L4.45729 36.7085C11.5938 43.7065 34.658 58.3271 48.3095 65.8798C60.825 72.8036 89.8908 73.5766 89.9449 73.5786L89.9459 78.7837C89.8918 78.7827 60.4351 76.6037 47.4818 70.5281C32.6544 63.5728 4.38892 40.9871 4.38892 40.9871Z" fill="rgb(230,109,100)" fill-rule="nonzero" />
		<g id="Group 89">
			<path id="Vector 982" d="M46.7061 54.2251L46.7061 60.2509L41.9773 57.5326L41.9773 51.2437L46.7061 54.2251Z" fill="rgb(64,70,77)" fill-rule="nonzero" />
			<path id="Vector 983" d="M43.0673 52.0566L43.0673 57.1154L46.7948 59.2577L46.7948 60.432L42.066 57.7147L42.066 51.4258L43.0673 52.0566Z" fill="rgb(103,110,117)" fill-rule="nonzero" />
			<path id="Vector 984" d="M46.7215 54.2517L46.7215 60.2775L41.9927 57.5592L41.9927 51.2712L46.7215 54.2517Z" opacity="0.660000026" fill="rgb(138,176,195)" fill-rule="nonzero" />
		</g>
		<g id="Group 90">
			<path id="Vector 985" d="M39.2592 49.8105L39.2592 55.8363L34.5304 53.118L34.5304 46.8301L39.2592 49.8105Z" fill="rgb(64,70,77)" fill-rule="nonzero" />
			<path id="Vector 986" d="M35.6205 47.6426L35.6205 52.7004L39.348 54.8427L39.348 56.018L34.6193 53.2997L34.6193 47.0107L35.6205 47.6426Z" fill="rgb(103,110,117)" fill-rule="nonzero" />
			<path id="Vector 987" d="M39.2755 49.8369L39.2755 55.8627L34.5468 53.1444L34.5468 46.8564L39.2755 49.8369Z" opacity="0.660000026" fill="rgb(138,176,195)" fill-rule="nonzero" />
		</g>
		<g id="Group 91">
			<path id="Vector 988" d="M31.8123 45.3959L31.8123 51.4218L27.0835 48.7034L27.0835 42.4155L31.8123 45.3959Z" fill="rgb(64,70,77)" fill-rule="nonzero" />
			<path id="Vector 989" d="M28.1746 43.228L28.1746 48.2857L31.9021 50.4281L31.9021 51.6034L27.1733 48.8851L27.1733 42.5972L28.1746 43.228Z" fill="rgb(103,110,117)" fill-rule="nonzero" />
			<path id="Vector 990" d="M31.8286 45.4223L31.8286 51.4482L27.0999 48.7308L27.0999 42.4419L31.8286 45.4223Z" opacity="0.660000026" fill="rgb(138,176,195)" fill-rule="nonzero" />
		</g>
		<g id="Group 92">
			<path id="Vector 991" d="M24.3665 40.9812L24.3665 47.007L19.6377 44.2897L19.6377 38.0007L24.3665 40.9812Z" fill="rgb(64,70,77)" fill-rule="nonzero" />
			<path id="Vector 992" d="M20.7278 38.8134L20.7278 43.8712L24.4553 46.0146L24.4553 47.1889L19.7266 44.4705L19.7266 38.1826L20.7278 38.8134Z" fill="rgb(103,110,117)" fill-rule="nonzero" />
			<path id="Vector 993" d="M24.3819 41.0075L24.3819 47.0344L19.6531 44.316L19.6531 38.0271L24.3819 41.0075Z" opacity="0.660000026" fill="rgb(138,176,195)" fill-rule="nonzero" />
		</g>
		<g id="Group 93">
			<path id="Vector 994" d="M16.9197 36.5663L16.9197 42.5932L12.1909 39.8749L12.1909 33.5859L16.9197 36.5663Z" fill="rgb(64,70,77)" fill-rule="nonzero" />
			<path id="Vector 995" d="M13.2811 34.3986L13.2811 39.4574L17.0086 41.5998L17.0086 42.7741L12.2798 40.0557L12.2798 33.7678L13.2811 34.3986Z" fill="rgb(103,110,117)" fill-rule="nonzero" />
			<path id="Vector 996" d="M16.9351 36.5937L16.9351 42.6196L12.2063 39.9012L12.2063 33.6123L16.9351 36.5937Z" opacity="0.660000026" fill="rgb(138,176,195)" fill-rule="nonzero" />
		</g>
		<path id="Vector 997" d="M4.45732 20.5439C6.52623 22.5796 6.93961 22.4455 9.42189 24.3472C20.0941 32.5235 34.7234 40.1076 48.3096 47.9172C60.7098 55.0452 89.9449 55.6161 89.9449 55.6161C89.9419 55.5856 87.9363 38.1003 73.9592 31.3035C59.9708 24.5016 30.1518 11.0135 30.1518 11.0135C30.1518 11.0135 19.35 4.8475 8.8401 10.7078C5.07686 12.8044 4.18888 18.7043 4.45732 20.5439ZM11.4897 11.3213C22.2456 5.56772 32.0196 13.4708 32.0196 13.4708C32.0196 13.4708 60.1126 25.8983 72.718 31.848C86.2113 38.2171 88.4384 54.6917 88.4384 54.6917C88.4384 54.6917 63.5003 54.6704 49.5507 47.004C28.038 35.1819 20.1777 30.051 9.42186 22.4445C7.26315 20.9198 2.01587 16.3892 11.4897 11.3213Z" opacity="0.660000026" fill="rgb(138,176,195)" fill-rule="nonzero" />
		<path id="Vector 998" d="M77.664 64.6973L77.317 68.5981L60.2769 65.128L60.6014 61.4863L77.664 64.6973Z" fill="rgb(255,229,66)" fill-rule="nonzero" />
		<g id="Group 94">
			<path id="Vector 999" d="M48.6514 13.4585L37.3975 19.9252L37.3975 36.0909L48.6514 29.6252L48.6514 13.4585Z" fill="rgb(255,229,66)" fill-rule="nonzero" />
			<rect id="Rectangle 17" width="1.849474" height="13.251360" x="0.000000" y="0.000000" fill="rgb(252,184,41)" transform="matrix(-1,0,0,-1,47.7599,28.6143)" />
			<rect id="Rectangle 18" width="1.849474" height="13.251351" x="0.000000" y="0.000000" fill="rgb(252,184,41)" transform="matrix(-1,0,0,-1,44.2439,30.7695)" />
			<rect id="Rectangle 19" width="1.849474" height="13.251360" x="0.000000" y="0.000000" fill="rgb(252,184,41)" transform="matrix(-1,0,0,-1,40.7268,32.9241)" />
			<path id="Vector 1000" d="M14.8916 6.99072L37.3974 19.9251L37.3974 36.0909L14.8895 23.1554L14.8916 6.99072Z" fill="rgb(252,184,41)" fill-rule="nonzero" />
			<rect id="Rectangle 20" width="1.849474" height="14.043696" x="0.000000" y="0.000000" fill="rgb(203,158,54)" transform="matrix(-1,0,0,-1,34.9707,33.5688)" />
			<rect id="Rectangle 21" width="1.849474" height="14.043696" x="0.000000" y="0.000000" fill="rgb(203,158,54)" transform="matrix(-1,0,0,-1,30.8578,31.137)" />
			<rect id="Rectangle 22" width="1.849474" height="14.043696" x="0.000000" y="0.000000" fill="rgb(203,158,54)" transform="matrix(-1,0,0,-1,26.7458,28.7058)" />
			<rect id="Rectangle 23" width="1.849474" height="14.043696" x="0.000000" y="0.000000" fill="rgb(203,158,54)" transform="matrix(-1,0,0,-1,22.634,26.2749)" />
			<rect id="Rectangle 24" width="1.849474" height="14.043696" x="0.000000" y="0.000000" fill="rgb(203,158,54)" transform="matrix(-1,0,0,-1,18.5221,23.8428)" />
			<path id="Vector 1001" d="M26.1925 0L49.1179 13.227L37.3975 19.8481L14.4731 6.81614L26.1925 0Z" fill="rgb(255,250,203)" fill-rule="nonzero" />
			<path id="Vector 1002" d="M26.1925 1.36011L49.1179 14.5861L37.3975 21.2082L14.4731 8.17625L26.1925 1.36011Z" fill="rgb(255,229,66)" fill-rule="nonzero" />
			<path id="Vector 1003" d="M26.213 1.37239L15.6755 7.4998L14.4926 6.82835L26.213 0.012207L49.1373 13.2382L47.9472 13.9106L26.213 1.37239Z" fill="rgb(235,198,62)" fill-rule="nonzero" />
			<path id="Vector 1004" d="M49.1179 27.2463L49.1179 29.341L37.3975 36.0911L37.3975 33.8553L49.1179 27.2463Z" fill="rgb(252,184,41)" fill-rule="nonzero" />
			<path id="Vector 1005" d="M48.6514 27.2524L49.1179 27.2524L37.3975 33.8614L37.3975 33.6277L48.6514 27.2524Z" fill="rgb(255,244,121)" fill-rule="nonzero" />
			<path id="Vector 1006" d="M14.3701 20.8193L14.3701 23.3426L37.3976 36.0911L37.3976 33.8553L14.3701 20.8193Z" fill="rgb(203,158,54)" fill-rule="nonzero" />
			<path id="Vector 1007" d="M14.8968 20.8293L14.3701 20.8252L37.3976 33.8612L37.3976 33.6276L14.8968 20.8293Z" fill="rgb(255,229,66)" fill-rule="nonzero" />
			<path id="Vector 1008" d="M14.3701 20.8213L14.8896 20.5247L14.8896 20.8253L14.3701 20.8213Z" fill="rgb(252,184,41)" fill-rule="nonzero" />
			<path id="Vector 1009" d="M49.1179 13.2271L49.1179 15.2475L37.3975 22.0718L37.3975 19.836L49.1179 13.2271Z" fill="rgb(252,184,41)" fill-rule="nonzero" />
			<path id="Vector 1010" d="M14.3701 6.79883L14.3701 9.32314L37.3976 22.0717L37.3976 19.8358L14.3701 6.79883Z" fill="rgb(203,158,54)" fill-rule="nonzero" />
			<path id="Vector 1011" d="M14.3701 6.81616L37.2944 19.8481L49.118 13.226L26.214 0.012207L14.3701 6.81616ZM37.1945 19.0425L15.6062 6.88015L26.1936 0.707017L48.0881 13.2229L37.1945 19.0425Z" fill="rgb(255,250,203)" fill-rule="nonzero" />
			<path id="Vector 1012" d="M48.6515 27.0098L49.1179 27.2525L48.6515 27.2525L48.6515 27.0098Z" fill="rgb(255,229,66)" fill-rule="nonzero" />
		</g>
		<g id="Group 95">
			<path id="Vector 1013" d="M37.2811 29.8332L44.5575 34.0143L51.8227 29.8271L44.6779 25.7212L37.2811 29.8332Z" fill="rgb(243,231,209)" fill-rule="nonzero" />
			<path id="Vector 1014" d="M51.8339 38.1957L51.8339 29.8345L44.5575 34.0146L44.5575 42.3768L51.8339 38.1957Z" fill="rgb(223,206,190)" fill-rule="nonzero" />
			<path id="Vector 1015" d="M40.4993 31.6833L41.2127 32.0936L48.5085 27.9105L47.7634 27.4849L40.4993 31.6833Z" fill="rgb(189,166,114)" fill-rule="nonzero" />
			<path id="Vector 1016" d="M37.2811 29.8335L37.2811 38.1957L44.5565 42.3758L44.5565 34.0156L41.5251 32.2745L40.1114 31.4598L37.2811 29.8335Z" fill="rgb(161,139,120)" fill-rule="nonzero" />
			<path id="Vector 1017" d="M47.7788 37.3818L45.3536 38.7755L45.3536 40.8661L47.7788 39.4724L47.7788 37.3818Z" fill="rgb(238,235,212)" fill-rule="nonzero" />
			<path id="Vector 1018" d="M40.4993 31.6831L41.2127 32.0935L41.224 34.8291L40.4932 34.3994L40.4993 31.6831Z" fill="rgb(139,124,84)" fill-rule="nonzero" />
		</g>
		<g id="Group 96">
			<path id="Vector 1019" d="M56.0033 29.8537L63.2797 34.0348L70.5438 29.8476L63.4001 25.7417L56.0033 29.8537Z" fill="rgb(243,231,209)" fill-rule="nonzero" />
			<path id="Vector 1020" d="M70.5552 38.2159L70.5552 29.8547L63.2798 34.0348L63.2798 42.397L70.5552 38.2159Z" fill="rgb(223,206,190)" fill-rule="nonzero" />
			<path id="Vector 1021" d="M59.2205 31.7035L59.9349 32.1139L67.2297 27.9308L66.4856 27.5042L59.2205 31.7035Z" fill="rgb(189,166,114)" fill-rule="nonzero" />
			<path id="Vector 1022" d="M56.0033 29.8538L56.0033 38.216L63.2787 42.3961L63.2787 34.0359L60.2463 32.2948L58.8326 31.4801L56.0033 29.8538Z" fill="rgb(161,139,120)" fill-rule="nonzero" />
			<path id="Vector 1023" d="M66.5009 37.4023L64.0758 38.7961L64.0758 40.8866L66.5009 39.4929L66.5009 37.4023Z" fill="rgb(238,235,212)" fill-rule="nonzero" />
			<path id="Vector 1024" d="M59.2205 31.7036L59.935 32.114L59.9452 34.8496L59.2144 34.4199L59.2205 31.7036Z" fill="rgb(139,124,84)" fill-rule="nonzero" />
		</g>
		<g id="Group 97">
			<path id="Vector 1025" d="M46.5989 35.3991L53.8742 39.5803L61.1394 35.393L53.9947 31.2871L46.5989 35.3991Z" fill="rgb(243,231,209)" fill-rule="nonzero" />
			<path id="Vector 1026" d="M61.1507 43.7612L61.1507 35.3989L53.8743 39.58L53.8743 47.9412L61.1507 43.7612Z" fill="rgb(223,206,190)" fill-rule="nonzero" />
			<path id="Vector 1027" d="M49.816 37.2487L50.5295 37.6581L57.8253 33.476L57.0802 33.0493L49.816 37.2487Z" fill="rgb(189,166,114)" fill-rule="nonzero" />
			<path id="Vector 1028" d="M46.5989 35.3989L46.5989 43.7612L53.8732 47.9412L53.8732 39.5811L50.8418 37.8389L49.4282 37.0253L46.5989 35.3989Z" fill="rgb(161,139,120)" fill-rule="nonzero" />
			<path id="Vector 1029" d="M57.0954 42.9478L54.6703 44.3415L54.6703 46.432L57.0954 45.0383L57.0954 42.9478Z" fill="rgb(238,235,212)" fill-rule="nonzero" />
			<path id="Vector 1030" d="M49.8161 37.2488L50.5295 37.6582L50.5407 40.3948L49.8099 39.9651L49.8161 37.2488Z" fill="rgb(139,124,84)" fill-rule="nonzero" />
		</g>
		<g id="Group 98">
			<path id="Vector 1031" d="M59.9452 37.573L67.2216 41.7541L74.4857 37.5669L67.342 33.4609L59.9452 37.573Z" fill="rgb(243,231,209)" fill-rule="nonzero" />
			<path id="Vector 1032" d="M74.4971 45.9352L74.4971 37.573L67.2217 41.7541L67.2217 50.1153L74.4971 45.9352Z" fill="rgb(223,206,190)" fill-rule="nonzero" />
			<path id="Vector 1033" d="M63.1624 39.4228L63.8768 39.8322L71.1716 35.65L70.4275 35.2234L63.1624 39.4228Z" fill="rgb(189,166,114)" fill-rule="nonzero" />
			<path id="Vector 1034" d="M59.9452 37.573L59.9452 45.9352L67.2206 50.1153L67.2206 41.7551L64.1881 40.013L62.7745 39.1993L59.9452 37.573Z" fill="rgb(161,139,120)" fill-rule="nonzero" />
			<path id="Vector 1035" d="M70.4428 45.1216L68.0177 46.5153L68.0177 48.6058L70.4428 47.2122L70.4428 45.1216Z" fill="rgb(238,235,212)" fill-rule="nonzero" />
			<path id="Vector 1036" d="M63.1625 39.4229L63.8769 39.8322L63.8882 42.5688L63.1573 42.1391L63.1625 39.4229Z" fill="rgb(139,124,84)" fill-rule="nonzero" />
		</g>
		<g id="Group 99">
			<path id="Vector 1037" d="M45.618 21.2955L53.9641 26.0922L62.2979 21.2884L54.1029 16.5791L45.618 21.2955Z" fill="rgb(243,231,209)" fill-rule="nonzero" />
			<path id="Vector 1038" d="M62.3102 30.8877L62.3102 21.2964L53.9641 26.0921L53.9641 35.6834L62.3102 30.8877Z" fill="rgb(223,206,190)" fill-rule="nonzero" />
			<path id="Vector 1039" d="M49.3088 23.4176L50.1274 23.8879L58.4959 19.0892L57.6416 18.6006L49.3088 23.4176Z" fill="rgb(189,166,114)" fill-rule="nonzero" />
			<path id="Vector 1040" d="M45.618 21.2954L45.618 30.8878L53.9631 35.6824L53.9631 26.0931L50.4856 24.095L48.8638 23.1605L45.618 21.2954Z" fill="rgb(161,139,120)" fill-rule="nonzero" />
			<path id="Vector 1041" d="M57.6599 29.9541L54.8776 31.553L54.8776 33.9514L57.6599 32.3525L57.6599 29.9541Z" fill="rgb(238,235,212)" fill-rule="nonzero" />
			<path id="Vector 1042" d="M49.3089 23.4175L50.1275 23.8878L50.1407 27.0257L49.3027 26.533L49.3089 23.4175Z" fill="rgb(139,124,84)" fill-rule="nonzero" />
		</g>
	</g>
</svg>
