<svg viewBox="0 0 93 81" xmlns="http://www.w3.org/2000/svg" xmlns:xlink="http://www.w3.org/1999/xlink" width="93.000000" height="81.000000" fill="none" customFrame="#000000">
	<g id="product sourcing">
		<ellipse id="Oval 1" rx="46.500000" ry="22.001236" cx="46.5" cy="58.9987946" fill="rgb(221,221,221)" />
		<g id="_x35_">
			<path id="Vector 1475" d="M79.7451 56.684L86.0371 53.053L86.0371 55.825L79.7461 59.551L79.7451 56.684Z" fill="rgb(161,105,70)" fill-rule="nonzero" />
			<path id="Vector 1476" d="M17.663 61.6931L17.665 58.826L60.461 33.7061L60.462 36.5741L17.663 61.6931Z" fill="rgb(161,105,70)" fill-rule="nonzero" />
			<path id="Vector 1477" d="M17.665 58.826L60.461 33.706L54.171 30.074L11.373 55.196L17.665 58.826Z" fill="rgb(218,141,97)" fill-rule="nonzero" />
			<path id="Vector 1478" d="M17.665 58.826L11.373 55.196L11.373 57.9671L17.663 61.6931L17.665 58.826Z" fill="rgb(184,120,82)" fill-rule="nonzero" />
			<path id="Vector 1479" d="M30.293 68.985L30.294 66.1181L73.091 40.998L73.091 43.8661L30.293 68.985Z" fill="rgb(161,105,70)" fill-rule="nonzero" />
			<path id="Vector 1480" d="M30.2941 66.118L73.0911 40.998L66.8001 37.366L24.0021 62.487L30.2941 66.118Z" fill="rgb(218,141,97)" fill-rule="nonzero" />
			<path id="Vector 1481" d="M30.2941 66.1181L24.0021 62.4871L24.0021 65.2581L30.2931 68.9851L30.2941 66.1181Z" fill="rgb(184,120,82)" fill-rule="nonzero" />
			<path id="Vector 1482" d="M42.9221 76.2761L42.9241 73.4101L85.7201 48.2891L85.7211 51.1581L42.9221 76.2761Z" fill="rgb(161,105,70)" fill-rule="nonzero" />
			<path id="Vector 1483" d="M42.9241 73.41L85.7201 48.289L79.4301 44.658L36.6321 69.779L42.9241 73.41Z" fill="rgb(218,141,97)" fill-rule="nonzero" />
			<path id="Vector 1484" d="M42.9241 73.41L36.6321 69.7791L36.6321 72.55L42.9221 76.276L42.9241 73.41Z" fill="rgb(184,120,82)" fill-rule="nonzero" />
			<path id="Vector 1485" d="M79.7461 59.551L79.7451 56.684L36.9481 31.564L36.9481 34.432L79.7461 59.551Z" fill="rgb(184,120,82)" fill-rule="nonzero" />
			<path id="Vector 1486" d="M79.7451 56.6841L36.9481 31.5641L43.2391 27.9321L86.0371 53.0531L79.7451 56.6841Z" fill="rgb(232,149,103)" fill-rule="nonzero" />
			<path id="Vector 1487" d="M67.1171 66.843L67.1151 63.976L24.3191 38.856L24.3181 41.724L67.1171 66.843Z" fill="rgb(184,120,82)" fill-rule="nonzero" />
			<path id="Vector 1488" d="M67.115 63.9761L24.319 38.8561L30.609 35.2241L73.407 60.3451L67.115 63.9761Z" fill="rgb(232,149,103)" fill-rule="nonzero" />
			<path id="Vector 1489" d="M67.1151 63.976L73.4071 60.345L73.4071 63.116L67.1171 66.843L67.1151 63.976Z" fill="rgb(161,105,70)" fill-rule="nonzero" />
			<path id="Vector 1490" d="M54.4871 74.134L54.486 71.267L11.689 46.147L11.688 49.016L54.4871 74.134Z" fill="rgb(184,120,82)" fill-rule="nonzero" />
			<path id="Vector 1491" d="M54.486 71.2671L11.689 46.1471L17.98 42.5151L60.778 67.6371L54.486 71.2671Z" fill="rgb(232,149,103)" fill-rule="nonzero" />
			<path id="Vector 1492" d="M54.486 71.267L60.778 67.637L60.778 70.408L54.487 74.134L54.486 71.267Z" fill="rgb(161,105,70)" fill-rule="nonzero" />
			<path id="Vector 1493" d="M29.2551 61.362L64.417 61.3631L54.6851 46.5601L24.1021 56.573L29.2551 61.362Z" opacity="0.319999993" fill="rgb(0,96,89)" fill-rule="nonzero" />
			<path id="Vector 1494" d="M63.058 23.6049L47.145 32.7939L31.256 23.5919L46.881 14.5688L63.058 23.6049Z" fill="rgb(243,231,209)" fill-rule="nonzero" />
			<path id="Vector 1495" d="M31.2321 41.9809L31.2321 23.6069L47.1451 32.7939L47.1451 51.1679L31.2321 41.9809Z" fill="rgb(235,217,182)" fill-rule="nonzero" />
			<path id="Vector 1496" d="M56.0221 27.6689L54.4601 28.5709L38.5051 19.3789L40.1331 18.4429L56.0221 27.6689Z" fill="rgb(139,124,84)" fill-rule="nonzero" />
			<path id="Vector 1497" d="M63.058 23.605L63.058 41.982L47.147 51.167L47.147 32.796L53.779 28.968L56.87 27.179L63.058 23.605Z" fill="rgb(161,139,120)" fill-rule="nonzero" />
			<path id="Vector 1498" d="M40.0991 40.1938L45.4041 43.2569L45.4041 47.8499L40.0991 44.7879L40.0991 40.1938Z" fill="rgb(238,235,212)" fill-rule="nonzero" />
			<path id="Vector 1499" d="M56.022 27.6689L54.46 28.5709L54.436 34.5839L56.034 33.6379L56.022 27.6689Z" fill="rgb(139,124,84)" fill-rule="nonzero" />
			<path id="Vector 1500" d="M81.5831 34.286L65.6701 43.475L49.7811 34.273L65.4061 25.25L81.5831 34.286Z" fill="rgb(243,231,209)" fill-rule="nonzero" />
			<path id="Vector 1501" d="M49.7571 52.6621L49.7571 34.2871L65.6701 43.4751L65.6701 61.8491L49.7571 52.6621Z" fill="rgb(223,206,190)" fill-rule="nonzero" />
			<path id="Vector 1502" d="M74.547 38.35L72.985 39.252L57.03 30.06L58.658 29.124L74.547 38.35Z" fill="rgb(189,166,114)" fill-rule="nonzero" />
			<path id="Vector 1503" d="M81.5831 34.2861L81.5831 52.6631L65.6721 61.8481L65.6721 43.4771L72.3031 39.6491L75.3951 37.8591L81.5831 34.2861Z" fill="rgb(161,139,120)" fill-rule="nonzero" />
			<path id="Vector 1504" d="M58.624 50.875L63.929 53.937L63.929 58.531L58.624 55.469L58.624 50.875Z" fill="rgb(238,235,212)" fill-rule="nonzero" />
			<path id="Vector 1505" d="M74.5471 38.3501L72.9851 39.2521L72.9611 45.2641L74.5591 44.3191L74.5471 38.3501Z" fill="rgb(139,124,84)" fill-rule="nonzero" />
			<path id="Vector 1506" d="M60.617 7.66301L47.122 15.456L33.647 7.65201L46.898 0L60.617 7.66301Z" fill="rgb(243,231,209)" fill-rule="nonzero" />
			<path id="Vector 1507" d="M33.626 23.2481L33.626 7.66406L47.122 15.4561L47.122 31.0391L33.626 23.2481Z" fill="rgb(223,206,190)" fill-rule="nonzero" />
			<path id="Vector 1508" d="M54.6501 11.1102L53.3251 11.8752L39.7941 4.07916L41.1751 3.28516L54.6501 11.1102Z" fill="rgb(189,166,114)" fill-rule="nonzero" />
			<path id="Vector 1509" d="M60.6171 7.66309L60.6171 23.2481L47.123 31.0381L47.123 15.4581L52.747 12.2111L55.369 10.6941L60.6171 7.66309Z" fill="rgb(161,139,120)" fill-rule="nonzero" />
			<path id="Vector 1510" d="M41.1461 21.7319L45.6451 24.3289L45.6451 28.2249L41.1461 25.6279L41.1461 21.7319Z" fill="rgb(238,235,212)" fill-rule="nonzero" />
			<path id="Vector 1511" d="M54.6501 11.1099L53.3251 11.8749L53.3051 16.9739L54.6601 16.1719L54.6501 11.1099Z" fill="rgb(139,124,84)" fill-rule="nonzero" />
			<path id="Vector 1512" d="M45.166 33.8002L29.253 42.9892L13.364 33.7862L28.989 24.7642L45.166 33.8002Z" fill="rgb(243,231,209)" fill-rule="nonzero" />
			<path id="Vector 1513" d="M13.34 52.176L13.34 33.801L29.253 42.989L29.253 61.363L13.34 52.176Z" fill="rgb(223,206,190)" fill-rule="nonzero" />
			<path id="Vector 1514" d="M38.1301 37.8639L36.5681 38.7659L20.6121 29.5739L22.2411 28.6379L38.1301 37.8639Z" fill="rgb(189,166,114)" fill-rule="nonzero" />
			<path id="Vector 1515" d="M45.1661 33.8L45.1661 52.1761L29.2551 61.362L29.2551 42.9911L35.8861 39.1631L38.9781 37.373L45.1661 33.8Z" fill="rgb(161,139,120)" fill-rule="nonzero" />
			<path id="Vector 1516" d="M22.207 50.3892L27.511 53.4512L27.511 58.0452L22.207 54.9822L22.207 50.3892Z" fill="rgb(238,235,212)" fill-rule="nonzero" />
			<path id="Vector 1517" d="M38.1301 37.864L36.5681 38.766L36.5441 44.778L38.1421 43.833L38.1301 37.864Z" fill="rgb(139,124,84)" fill-rule="nonzero" />
			<path id="Vector 1518" d="M47.123 31.0379L50.8661 30.7L63.0581 23.6049L60.6171 22.2419L60.6171 23.2479L47.123 31.0379Z" opacity="0.319999993" fill="rgb(0,96,89)" fill-rule="nonzero" />
		</g>
	</g>
</svg>
