<svg viewBox="0 0 89 84" xmlns="http://www.w3.org/2000/svg" xmlns:xlink="http://www.w3.org/1999/xlink" width="89.000000" height="84.000000" fill="none" customFrame="#000000">
	<g id="quality inspection">
		<ellipse id="Oval 18" rx="44.500000" ry="15.574647" cx="44.5" cy="68.4252319" fill="rgb(221,221,221)" />
		<g id="Group 20">
			<path id="Vector 156" d="M38.089 65.2546L33.817 62.79L33.817 64.6715L38.089 67.201L38.089 65.2546Z" fill="rgb(161,105,70)" fill-rule="nonzero" />
			<g id="Group 21">
				<path id="Vector 157" d="M80.2419 68.6546L80.2409 66.7092L51.1832 49.6572L51.1822 51.6037L80.2419 68.6546Z" fill="rgb(161,105,70)" fill-rule="nonzero" />
				<path id="Vector 158" d="M80.2409 66.709L51.1832 49.657L55.4542 47.1914L84.5129 64.2444L80.2409 66.709Z" fill="rgb(218,141,97)" fill-rule="nonzero" />
				<path id="Vector 159" d="M71.6668 73.6046L71.6658 71.6582L42.6071 54.6062L42.6071 56.5536L71.6668 73.6046Z" fill="rgb(161,105,70)" fill-rule="nonzero" />
				<path id="Vector 160" d="M71.6658 71.6582L42.6071 54.6062L46.8781 52.1406L75.9379 69.1936L71.6658 71.6582Z" fill="rgb(218,141,97)" fill-rule="nonzero" />
				<path id="Vector 161" d="M71.6658 71.6582L75.9379 69.1936L75.9379 71.0751L71.6668 73.6046L71.6658 71.6582Z" fill="rgb(184,120,82)" fill-rule="nonzero" />
				<path id="Vector 162" d="M63.0918 78.5548L63.0908 76.6084L34.0321 59.5564L34.0321 61.5038L63.0918 78.5548Z" fill="rgb(161,105,70)" fill-rule="nonzero" />
				<path id="Vector 163" d="M63.0908 76.6084L34.0321 59.5564L38.3031 57.0908L67.3628 74.1438L63.0908 76.6084Z" fill="rgb(218,141,97)" fill-rule="nonzero" />
				<path id="Vector 164" d="M63.0908 76.6084L67.3628 74.1438L67.3628 76.0253L63.0918 78.5548L63.0908 76.6084Z" fill="rgb(184,120,82)" fill-rule="nonzero" />
				<path id="Vector 165" d="M38.089 67.2011L38.089 65.2546L67.1477 48.2026L67.1487 50.1501L38.089 67.2011Z" fill="rgb(184,120,82)" fill-rule="nonzero" />
				<path id="Vector 166" d="M38.089 65.2549L67.1477 48.2029L62.8767 45.7373L33.817 62.7903L38.089 65.2549Z" fill="rgb(232,149,103)" fill-rule="nonzero" />
				<path id="Vector 167" d="M46.6641 72.1503L46.6651 70.2048L75.7228 53.1528L75.7238 55.0993L46.6641 72.1503Z" fill="rgb(184,120,82)" fill-rule="nonzero" />
				<path id="Vector 168" d="M46.665 70.2048L75.7228 53.1528L71.4517 50.6873L42.393 67.7402L46.665 70.2048Z" fill="rgb(232,149,103)" fill-rule="nonzero" />
				<path id="Vector 169" d="M46.665 70.2048L42.393 67.7402L42.393 69.6207L46.664 72.1503L46.665 70.2048Z" fill="rgb(161,105,70)" fill-rule="nonzero" />
				<path id="Vector 170" d="M55.2391 77.1005L55.2401 75.154L84.2978 58.1021L84.2988 60.0495L55.2391 77.1005Z" fill="rgb(184,120,82)" fill-rule="nonzero" />
				<path id="Vector 171" d="M55.2401 75.154L84.2978 58.102L80.0268 55.6365L50.9681 72.6894L55.2401 75.154Z" fill="rgb(232,149,103)" fill-rule="nonzero" />
				<path id="Vector 172" d="M55.2401 75.154L50.9681 72.6895L50.9681 74.5709L55.2391 77.1005L55.2401 75.154Z" fill="rgb(161,105,70)" fill-rule="nonzero" />
				<path id="Vector 173" d="M72.3712 68.4304L48.4969 68.4314L55.105 58.3821L75.8698 65.1797L72.3712 68.4304Z" opacity="0.319999993" fill="rgb(138,190,180)" fill-rule="nonzero" />
				<g id="Group 22">
					<path id="Vector 174" d="M49.4193 42.8004L60.2244 49.0379L71.0125 42.7914L60.4035 36.666L49.4193 42.8004Z" fill="rgb(243,231,209)" fill-rule="nonzero" />
					<path id="Vector 175" d="M71.0285 55.2745L71.0285 42.8005L60.2244 49.038L60.2244 61.5109L71.0285 55.2745Z" fill="rgb(235,217,182)" fill-rule="nonzero" />
					<path id="Vector 176" d="M54.1966 45.5591L55.2571 46.1712L66.0912 39.9308L64.9857 39.2957L54.1966 45.5591Z" fill="rgb(139,124,84)" fill-rule="nonzero" />
					<path id="Vector 177" d="M49.4193 42.8005L49.4193 55.2745L60.2224 61.5099L60.2224 49.039L55.7203 46.4404L53.6213 45.2261L49.4193 42.8005Z" fill="rgb(223,206,190)" fill-rule="nonzero" />
					<path id="Vector 178" d="M65.0087 54.061L61.407 56.1395L61.407 59.2583L65.0087 57.1788L65.0087 54.061Z" fill="rgb(238,235,212)" fill-rule="nonzero" />
					<path id="Vector 179" d="M54.1966 45.5591L55.2571 46.1712L55.2741 50.2522L54.1886 49.611L54.1966 45.5591Z" fill="rgb(139,124,84)" fill-rule="nonzero" />
				</g>
				<g id="Group 23">
					<path id="Vector 180" d="M36.8414 50.0502L47.6465 56.2876L58.4346 50.0412L47.8256 43.9167L36.8414 50.0502Z" fill="rgb(243,231,209)" fill-rule="nonzero" />
					<path id="Vector 181" d="M58.4506 62.5242L58.4506 50.0513L47.6465 56.2877L47.6465 68.7607L58.4506 62.5242Z" fill="rgb(161,139,120)" fill-rule="nonzero" />
					<path id="Vector 182" d="M41.6187 52.8089L42.6791 53.421L53.5133 47.1815L52.4077 46.5464L41.6187 52.8089Z" fill="rgb(189,166,114)" fill-rule="nonzero" />
					<path id="Vector 183" d="M36.8414 50.0503L36.8414 62.5252L47.6445 68.7607L47.6445 56.2897L43.1424 53.6911L41.0434 52.4758L36.8414 50.0503Z" fill="rgb(223,206,190)" fill-rule="nonzero" />
					<path id="Vector 184" d="M52.4298 61.3108L48.8281 63.3903L48.8281 66.508L52.4298 64.4295L52.4298 61.3108Z" fill="rgb(238,235,212)" fill-rule="nonzero" />
					<path id="Vector 185" d="M41.6187 52.8088L42.6792 53.421L42.6952 57.5029L41.6107 56.8608L41.6187 52.8088Z" fill="rgb(139,124,84)" fill-rule="nonzero" />
				</g>
				<g id="Group 24">
					<path id="Vector 186" d="M51.0771 31.9791L60.2405 37.2683L69.3898 31.9711L60.3925 26.7769L51.0771 31.9791Z" fill="rgb(243,231,209)" fill-rule="nonzero" />
					<path id="Vector 187" d="M69.4028 42.5575L69.4028 31.979L60.2405 37.2682L60.2405 47.8467L69.4028 42.5575Z" fill="rgb(161,139,120)" fill-rule="nonzero" />
					<path id="Vector 188" d="M55.129 34.3186L56.0275 34.8367L65.2158 29.5455L64.2784 29.0063L55.129 34.3186Z" fill="rgb(189,166,114)" fill-rule="nonzero" />
					<path id="Vector 189" d="M51.0771 31.979L51.0771 42.5575L60.2395 47.8457L60.2395 37.2692L56.4207 35.0657L54.6408 34.0355L51.0771 31.979Z" fill="rgb(223,206,190)" fill-rule="nonzero" />
					<path id="Vector 190" d="M64.2974 41.5283L61.2429 43.2917L61.2429 45.9364L64.2974 44.173L64.2974 41.5283Z" fill="rgb(238,235,212)" fill-rule="nonzero" />
					<path id="Vector 191" d="M55.129 34.3184L56.0275 34.8365L56.0415 38.2983L55.121 37.7542L55.129 34.3184Z" fill="rgb(139,124,84)" fill-rule="nonzero" />
				</g>
				<path id="Vector 192" d="M61.5681 49.7201L72.3732 55.9575L83.1613 49.7111L72.5523 43.5867L61.5681 49.7201Z" fill="rgb(243,231,209)" fill-rule="nonzero" />
				<path id="Vector 193" d="M83.1773 62.1941L83.1773 49.7212L72.3732 55.9576L72.3732 68.4315L83.1773 62.1941Z" fill="rgb(161,139,120)" fill-rule="nonzero" />
				<path id="Vector 194" d="M66.3453 52.4798L67.4058 53.0909L78.24 46.8515L77.1334 46.2163L66.3453 52.4798Z" fill="rgb(189,166,114)" fill-rule="nonzero" />
				<path id="Vector 195" d="M61.5681 49.7202L61.5681 62.1951L72.3712 68.4306L72.3712 55.9597L67.8691 53.3611L65.7701 52.1468L61.5681 49.7202Z" fill="rgb(223,206,190)" fill-rule="nonzero" />
				<path id="Vector 196" d="M77.1564 60.9817L73.5557 63.0602L73.5557 66.1789L77.1564 64.0994L77.1564 60.9817Z" fill="rgb(238,235,212)" fill-rule="nonzero" />
				<path id="Vector 197" d="M66.3453 52.4797L67.4058 53.0909L67.4229 57.1728L66.3373 56.5317L66.3453 52.4797Z" fill="rgb(139,124,84)" fill-rule="nonzero" />
				<path id="Vector 198" d="M60.2394 47.8457L57.6972 47.6156L49.4193 42.8005L51.0771 41.8743L51.0771 42.5574L60.2394 47.8457Z" opacity="0.319999993" fill="rgb(138,190,180)" fill-rule="nonzero" />
			</g>
		</g>
		<g id="Group 101">
			<path id="Vector 707" d="M11.0242 64.7876L11.0322 67.2392C10.8341 67.7723 14.6089 70.0078 14.8981 70.1828C14.8981 70.1828 18.999 72.1663 19.7443 71.7662C19.7443 71.7662 22.5617 70.6949 19.9604 68.7105C19.052 68.0173 17.0861 66.0049 17.0861 66.0049L14.4899 66.638L11.0242 64.7876Z" fill="rgb(176,226,249)" fill-rule="nonzero" />
			<path id="Vector 708" d="M13.1083 68.3034C14.578 68.6435 17.1182 67.5412 17.5154 66.463C17.2422 66.1899 17.0632 66.0059 17.0632 66.0059L14.4669 66.639L11.2944 64.9436L11.0083 66.801L11.0093 67.2391C10.8112 67.7722 14.586 70.0078 14.8741 70.1828C14.8741 70.1828 18.0886 71.8202 19.7204 71.7672C15.8936 70.1268 14.4589 69.3046 13.1083 68.3034Z" opacity="0.319999993" fill="rgb(0,96,89)" fill-rule="nonzero" />
			<path id="Vector 709" d="M18.7269 61.77L18.9009 64.2156C18.7389 64.7607 22.6567 66.7352 22.9569 66.8902C22.9569 66.8902 27.1829 68.5906 27.8992 68.1415C27.8992 68.1415 30.6375 66.8822 27.9082 65.0788C26.9548 64.4486 22.6587 60.7168 22.6587 60.7168L21.192 62.4882L18.7269 61.77Z" fill="rgb(176,226,249)" fill-rule="nonzero" />
			<path id="Vector 710" d="M20.3917 64.5324C21.8814 64.7725 24.3415 63.5002 24.6637 62.3969C24.3726 62.1429 22.6587 60.7166 22.6587 60.7166L21.4702 61.9198L19.005 61.9068L18.8459 63.7793L18.877 64.2164C18.7149 64.7615 22.6327 66.736 22.9329 66.891C22.9329 66.891 26.2514 68.3064 27.8752 68.1423C23.9464 66.767 21.8063 65.4397 20.3917 64.5324Z" opacity="0.319999993" fill="rgb(0,96,89)" fill-rule="nonzero" />
			<path id="Vector 711" d="M12.7 34.9136L10.614 65.9329C10.603 66.594 10.9452 67.1822 11.4594 67.3852L13.4083 67.7783C14.2317 68.1044 14.3558 67.4142 14.3298 66.356L14.9751 37.6453C14.9641 37.2242 14.811 36.8301 14.5499 36.557C13.7535 35.7229 12.722 33.6243 12.7 34.9136Z" fill="rgb(215,77,77)" fill-rule="nonzero" />
			<path id="Vector 712" d="M23.1149 30.5127L16.978 33.8665C16.835 33.9445 16.7119 34.0666 16.6199 34.2206L15.1432 36.6842C15.0261 36.8802 14.9651 37.1163 14.9711 37.3563L12.8481 67.2533C12.8681 68.0645 15.0851 68.0385 15.6624 67.6214L17.2041 66.5111C17.4683 66.3201 17.6353 65.978 17.6453 65.6059L19.6303 42.4485C19.6363 42.2345 19.6933 42.0254 19.7974 41.8494L20.5067 41.4673L20.5047 42.1805L19.9845 63.6215C20.1415 65.4229 25.1499 62.3582 24.7707 60.8948L24.3455 31.396C24.3015 30.6598 23.6722 30.2077 23.1149 30.5127Z" fill="rgb(230,109,100)" fill-rule="nonzero" />
			<path id="Vector 713" d="M19.7974 41.8513C19.1772 42.5615 18.1917 63.2873 18.2227 63.2853C18.2677 64.5166 20.0826 64.6347 21.1551 64.0315L20.5078 41.4692L19.7974 41.8513Z" fill="rgb(215,77,77)" fill-rule="nonzero" />
			<path id="Vector 714" d="M36.3502 34.6215C36.8975 36.5479 35.1136 37.6682 34.2903 37.6592C33.3118 37.6482 31.604 36.3979 30.7486 35.9388C30.0272 35.5507 22.9599 31.5587 22.9599 31.5587L21.5703 22.9247L25.1079 21.4424L26.0043 29.3832L31.569 33.7903L33.1787 33.1081C33.1787 33.1081 34.3173 32.664 34.7775 32.8681C35.2247 33.0671 34.2152 33.3472 34.6044 33.8373C35.0456 34.3934 36.2622 34.3124 36.3502 34.6215Z" fill="rgb(223,206,190)" fill-rule="nonzero" />
			<g id="Group 63">
				<path id="Vector 715" d="M10.7631 17.4133C9.23039 18.5126 9.43148 23.0177 9.96073 25.9383C10.0158 26.2434 9.93372 25.5093 10.2389 25.5702C11.0653 25.7353 11.9037 25.8353 12.746 25.8673C12.5169 27.4787 12.2888 29.0891 12.0597 30.7004C11.8976 31.8397 11.7366 32.995 11.8846 34.1352C12.0327 35.2755 12.5319 36.4198 13.4604 37.0989C13.6265 37.221 13.8136 37.329 14.0186 37.342C14.2187 37.355 22.9018 38.0341 24.5016 33.6041C24.5686 33.4201 24.6657 29.0721 24.4066 27.5117C24.1424 25.9173 23.6862 24.297 23.9974 22.7106C24.6607 22.8937 25.377 22.3685 25.7572 21.7934C25.9523 21.4973 25.342 16.1541 24.5516 13.6305C24.4176 13.2034 24.2575 12.7533 23.8993 12.4842C23.4251 12.1282 22.7658 12.2052 22.1795 12.2982C20.2576 12.6053 18.2036 11.8921 16.3908 12.5992C14.9221 13.1714 11.4234 16.9392 10.7631 17.4133Z" fill="rgb(176,226,249)" fill-rule="nonzero" />
			</g>
			<g id="Group 64">
				<g id="Group 65">
					<path id="Vector 716" d="M29.7931 36.0179C29.8021 36.1289 29.8592 36.2379 29.9662 36.307L36.2622 40.3739C36.5803 40.58 36.9845 40.6 37.3217 40.4269L47.1253 35.4048C47.2234 35.3548 47.2874 35.2707 47.3164 35.1787L47.3164 35.4258C47.3094 35.5528 47.2384 35.6768 47.1093 35.7438L37.3057 40.766C36.9685 40.9391 36.5643 40.9181 36.2462 40.713L29.9502 36.646C29.8432 36.577 29.7861 36.469 29.7771 36.357L29.7711 36.3549L29.7881 36.0159L29.7931 36.0179Z" fill="rgb(91,97,101)" fill-rule="nonzero" />
				</g>
				<path id="Vector 717" d="M47.1213 35.4218L37.3177 40.4439C36.9805 40.617 36.5763 40.596 36.2582 40.3909L29.9622 36.3239C29.7151 36.1639 29.7341 35.7968 29.9952 35.6628L40.06 30.5076C40.3231 30.3736 40.6372 30.3916 40.8824 30.5556L47.1603 34.7646C47.4014 34.9276 47.3804 35.2897 47.1213 35.4218Z" fill="rgb(146,148,151)" fill-rule="nonzero" />
				<path id="Vector 718" d="M46.2259 35.0808L40.5792 31.2559L31.1778 35.8219L37.2076 39.8008L46.2259 35.0808Z" fill="rgb(192,193,195)" fill-rule="nonzero" />
				<path id="Vector 719" d="M46.2119 34.9528L40.5662 31.1289L31.1648 35.695L37.1946 39.6729L46.2119 34.9528Z" fill="rgb(230,231,232)" fill-rule="nonzero" />
				<path id="Vector 720" d="M46.2209 34.7817L40.5752 30.9578L31.1738 35.5238L37.2036 39.5017L46.2209 34.7817Z" fill="rgb(255,255,255)" fill-rule="nonzero" />
				<path id="Vector 721" d="M44.2289 33.1782L44.5821 32.9862L44.6141 32.342L44.263 32.5141L44.2289 33.1782Z" fill="rgb(255,226,99)" fill-rule="nonzero" />
				<path id="Vector 722" d="M42.4061 31.9438L44.2289 33.1781L44.2629 32.514L42.4411 31.2637L42.4061 31.9438Z" fill="rgb(252,184,41)" fill-rule="nonzero" />
				<path id="Vector 723" d="M43.6307 32.4791C43.6307 32.4791 42.8813 33.2092 42.3641 32.7901C41.8468 32.372 42.8793 31.96 42.8793 31.96L43.6307 32.4791Z" fill="rgb(255,229,66)" fill-rule="nonzero" />
				<path id="Vector 724" d="M42.7763 31.1108L44.6141 32.3421L44.263 32.5142L42.4411 31.2639L42.7763 31.1108Z" fill="rgb(255,229,66)" fill-rule="nonzero" />
				<path id="Vector 725" d="M42.227 32.5162C42.211 32.6082 42.242 32.7052 42.3631 32.8042C42.8803 33.2223 43.6297 32.4932 43.6297 32.4932L43.6147 32.7872C43.6147 32.7872 42.8653 33.5174 42.3481 33.0983C42.262 33.0293 42.219 32.9603 42.207 32.8933L42.22 32.5172L42.227 32.5162Z" fill="rgb(252,184,41)" fill-rule="nonzero" />
				<path id="Vector 726" d="M42.3391 34.0513L39.6018 32.2739L39.3126 32.4219L42.0509 34.1994L42.3391 34.0513Z" fill="rgb(181,183,185)" fill-rule="nonzero" />
				<path id="Vector 727" d="M41.6317 34.4105L38.8944 32.6331L38.6063 32.7811L41.3436 34.5585L41.6317 34.4105Z" fill="rgb(181,183,185)" fill-rule="nonzero" />
				<path id="Vector 728" d="M40.2191 35.1287L37.4818 33.3513L37.1926 33.4984L39.9299 35.2768L40.2191 35.1287Z" fill="rgb(181,183,185)" fill-rule="nonzero" />
				<path id="Vector 729" d="M39.5117 35.4878L36.7744 33.7104L36.4863 33.8585L39.2236 35.6359L39.5117 35.4878Z" fill="rgb(181,183,185)" fill-rule="nonzero" />
				<path id="Vector 730" d="M38.0981 36.2059L35.3608 34.4285L35.0726 34.5755L37.8099 36.3539L38.0981 36.2059Z" fill="rgb(181,183,185)" fill-rule="nonzero" />
				<path id="Vector 731" d="M37.3917 36.565L34.6544 34.7876L34.3653 34.9356L37.1036 36.713L37.3917 36.565Z" fill="rgb(181,183,185)" fill-rule="nonzero" />
				<path id="Vector 732" d="M42.0419 34.9055C42.0319 35.1116 42.3861 35.2966 42.8343 35.3186C43.2825 35.3406 43.6527 35.1926 43.6637 34.9865C43.6737 34.7805 43.3195 34.5955 42.8723 34.5735C42.4251 34.5514 42.0519 34.6995 42.0419 34.9055Z" fill="rgb(230,109,100)" fill-rule="nonzero" />
				<path id="Vector 733" d="M39.8539 36.0007C39.8439 36.2068 40.198 36.3918 40.6462 36.4138C41.0935 36.4358 41.4646 36.2878 41.4756 36.0818C41.4856 35.8757 41.1315 35.6907 40.6843 35.6687C40.2351 35.6467 39.8639 35.7947 39.8539 36.0007Z" fill="rgb(230,109,100)" fill-rule="nonzero" />
				<path id="Vector 734" d="M37.6328 37.1531C37.6228 37.3591 37.977 37.5442 38.4252 37.5662C38.8724 37.5882 39.2446 37.4401 39.2546 37.2341C39.2646 37.0281 38.9104 36.843 38.4622 36.821C38.014 36.799 37.6428 36.9471 37.6328 37.1531Z" fill="rgb(230,109,100)" fill-rule="nonzero" />
			</g>
			<path id="Vector 735" d="M14.5609 22.1836L14.4219 24.9522L13.2003 25.5364L11.7976 32.1429C11.7356 32.8081 11.7156 33.4753 11.8016 34.1374C11.9497 35.2777 12.449 36.4219 13.3774 37.1011C13.5435 37.2221 13.7306 37.3312 13.9357 37.3442C14.0187 37.3492 15.5454 37.4672 17.4223 37.2942L14.5609 22.1836Z" opacity="0.319999993" fill="rgb(0,96,89)" fill-rule="nonzero" />
			<path id="Vector 736" d="M14.3618 44.4599C12.2298 43.8017 12.9641 42.7995 12.755 42.0023C12.5059 41.056 12.4599 41.2721 11.9256 39.9958C11.6095 39.2406 9.88467 31.3238 9.88467 31.3238L9.97472 25.3394C9.97472 25.3394 11.6455 26.2356 13.2833 25.5344C13.5744 26.7407 12.8061 31.2167 12.8061 31.2167L13.6895 38.7955L16.3647 41.6842C16.3647 41.6842 16.3107 42.1963 16.2477 42.7704C16.1846 43.3396 14.6689 44.5549 14.3618 44.4599Z" fill="rgb(243,231,209)" fill-rule="nonzero" />
			<path id="Vector 737" d="M19.6503 17.1253C17.4103 17.5604 16.1467 13.5345 16.1467 13.5345L16.1807 10.6108C16.9571 11.6671 17.8825 12.4483 18.8079 12.6683C19.3432 12.7973 19.8014 12.7663 20.1936 12.6053C20.1926 12.6053 22.0615 16.6583 19.6503 17.1253Z" fill="rgb(223,206,190)" fill-rule="nonzero" />
			<path id="Vector 738" d="M10.7181 17.4936C9.18441 18.5939 9.38651 23.0979 9.91576 26.0186C9.97078 26.3237 9.88874 25.5895 10.1939 25.6505C10.6671 25.7455 11.1453 25.8125 11.6256 25.8636L11.8867 25.7845L11.0313 18.3118L11.3945 16.8865C11.0863 17.1805 10.8472 17.4006 10.7181 17.4936Z" opacity="0.319999993" fill="rgb(0,96,89)" fill-rule="nonzero" />
			<path id="Vector 739" d="M25.7152 21.8106C25.7282 21.7906 25.7372 21.7476 25.7432 21.6855L23.7282 17.1675L23.9563 22.7268C24.6197 22.9098 25.336 22.3847 25.7152 21.8106Z" opacity="0.319999993" fill="rgb(0,96,89)" fill-rule="nonzero" />
			<path id="Vector 740" d="M22.6357 7.57745C22.1354 9.91799 21.5462 12.3265 20.0384 12.9197C19.6473 13.0808 19.188 13.1117 18.6528 12.9827C17.7274 12.7616 16.8019 11.9815 16.0256 10.9252C14.6419 9.04978 13.7345 6.31314 14.1407 4.41368C14.774 1.45897 17.2351 1.01886 19.8163 1.63003C22.3966 2.2462 23.269 4.62375 22.6357 7.57745Z" fill="rgb(243,231,209)" fill-rule="nonzero" />
			<path id="Vector 741" d="M18.4647 6.3321C18.4647 6.3321 15.1542 5.4159 15.2402 6.85023C15.2742 7.41435 15.1722 7.87247 15.0361 8.22054C14.879 8.62163 14.3048 8.61962 14.1567 8.21553C13.8675 7.42635 13.5624 6.11705 13.8435 4.51066C14.3108 1.83704 18.4647 6.3321 18.4647 6.3321Z" fill="rgb(186,164,136)" fill-rule="nonzero" />
			<path id="Vector 742" d="M23.115 4.54267C22.8469 5.0778 22.1215 5.67693 20.4077 6.12803C16.3868 7.18027 13.5635 5.18482 13.5635 5.18482C12.562 4.32662 13.2584 0.427711 17.6024 0.0266174C21.6013 -0.339464 23.001 3.19034 23.001 3.19034C23.001 3.19034 23.4722 3.8095 23.115 4.54267Z" fill="rgb(255,229,66)" fill-rule="nonzero" />
			<path id="Vector 743" d="M23.246 3.92139C23.246 3.92139 26.6436 5.40772 23.5271 7.0301C20.5267 8.59146 16.4088 6.27892 16.4088 6.27892C16.4088 6.27892 19.2121 6.81603 21.9184 5.58275C23.363 4.92561 23.246 3.92139 23.246 3.92139Z" fill="rgb(252,184,41)" fill-rule="nonzero" />
		</g>
	</g>
</svg>
