<svg viewBox="0 0 104 84" xmlns="http://www.w3.org/2000/svg" xmlns:xlink="http://www.w3.org/1999/xlink" width="104.000000" height="84.000000" fill="none" customFrame="#000000">
	<g id="warehouse">
		<ellipse id="Oval 19" rx="52.000000" ry="25.132763" cx="52" cy="58.8671379" fill="rgb(221,221,221)" />
		<g id="_x31_3">
			<path id="Vector 1196" d="M87.0464 51.2206L79.7883 47.2257C79.7883 47.2257 82.422 44.4456 85.606 46.5171C87.4094 47.6906 87.0464 51.2206 87.0464 51.2206Z" fill="rgb(59,65,72)" fill-rule="nonzero" />
			<path id="Vector 1197" d="M84.8121 49.3942L79.1583 46.096L79.1372 46.1327C77.2085 45.4466 74.3792 47.2341 72.5887 50.3678C70.7982 53.5015 70.6799 56.8694 72.2327 58.2145L72.2116 58.2511L77.8654 61.5493L84.8121 49.3942Z" fill="rgb(66,72,80)" fill-rule="nonzero" />
			<path id="Vector 1198" d="M77.8654 61.5505C75.9472 60.4313 75.9472 56.8032 77.8654 53.447C79.7836 50.0897 82.8939 48.2762 84.8132 49.3954C86.7314 50.5145 86.7314 54.1427 84.8132 57.4988C82.8939 60.8549 79.7836 62.6696 77.8654 61.5505Z" fill="rgb(96,104,113)" fill-rule="nonzero" />
			<path id="Vector 1199" d="M78.5692 60.3178C77.0398 59.4259 77.0398 56.5335 78.5692 53.8564C80.0986 51.1805 82.5789 49.7337 84.1083 50.6257C85.6377 51.5177 85.6377 54.4101 84.1083 57.0871C82.5789 59.7642 80.0986 61.2098 78.5692 60.3178Z" fill="rgb(114,123,132)" fill-rule="nonzero" />
			<path id="Vector 1200" d="M79.5236 58.6474C78.5212 58.0631 78.5212 56.1679 79.5236 54.4136C80.526 52.6592 82.1503 51.7116 83.1527 52.2972C84.1551 52.8816 84.1551 54.7767 83.1527 56.5299C82.1514 58.2843 80.526 59.2319 79.5236 58.6474Z" fill="rgb(171,184,185)" fill-rule="nonzero" />
			<path id="Vector 1201" d="M79.554 54.294C79.0118 55.2416 78.7659 56.2294 78.8104 57.0303C79.5142 56.6659 80.2309 55.9597 80.7684 55.0192C81.3106 54.0716 81.5565 53.0838 81.512 52.283C80.8082 52.6473 80.0915 53.3536 79.554 54.294Z" fill="rgb(96,104,113)" fill-rule="nonzero" />
			<path id="Vector 1202" d="M55.6577 69.4765L48.3995 65.4815C48.3995 65.4815 51.0332 62.7015 54.2173 64.7729C56.0207 65.9464 55.6577 69.4765 55.6577 69.4765Z" fill="rgb(59,65,72)" fill-rule="nonzero" />
			<path id="Vector 1203" d="M62.1055 32.4964L62.1055 65.6755L37.0603 51.0669L37.0603 17.8843L62.1055 32.4964Z" fill="rgb(0,100,85)" fill-rule="nonzero" />
			<path id="Vector 1204" d="M36.1621 39.1709L37.0755 39.6358L17.6502 50.7014L17.7193 49.923L36.1621 39.1709Z" fill="rgb(161,173,186)" fill-rule="nonzero" />
			<path id="Vector 1205" d="M37.8918 21.7822L16.5576 34.226L13 52.8887L13 69.4777L34.3341 81.9203L41.4435 77.7739C41.4435 77.7739 41.2679 69.583 48.6736 65.2651C56.0746 60.946 55.6682 69.4765 55.6682 69.4765L59.2212 67.4039L59.2212 34.226L37.8918 21.7822ZM36.6341 39.4004L36.5486 39.4512L17.6877 50.2921L18.9723 35.8112L24.6414 32.5071L36.6376 25.5122L36.6341 39.4004Z" fill="rgb(64,64,65)" fill-rule="nonzero" />
			<path id="Vector 1206" d="M36.5615 25.4531L36.5568 39.3413L36.4713 39.391L17.6104 50.2331L18.8951 35.7522L24.5653 32.4481L36.5615 25.4531Z" opacity="0.660000026" fill="rgb(146,148,151)" fill-rule="nonzero" />
			<path id="Vector 1207" d="M93 14.5187L62.1055 32.4965L37.2137 17.973L68.1095 0L93 14.5187Z" fill="rgb(208,226,148)" fill-rule="nonzero" />
			<path id="Vector 1208" d="M93 14.5188L93 47.6967L87.0804 51.1084C87.0804 51.1084 87.1284 42.7849 79.9651 46.9632C72.7503 51.1711 72.8557 59.4058 72.8557 59.4058L62.1043 65.6745L62.1043 32.4954L93 14.5188Z" fill="rgb(0,128,109)" fill-rule="nonzero" />
			<path id="Vector 1209" d="M53.7747 67.9423L48.1208 64.6441L48.0998 64.682C46.1711 63.9959 43.3418 65.7834 41.5513 68.9159C39.7607 72.0496 39.6425 75.4188 41.1953 76.7626L41.1742 76.7993L46.828 80.0974L53.7747 67.9423Z" fill="rgb(66,72,80)" fill-rule="nonzero" />
			<path id="Vector 1210" d="M46.8268 80.0986C44.9086 78.9795 44.9086 75.3513 46.8268 71.9951C48.745 68.6378 51.8553 66.8243 53.7746 67.9435C55.6928 69.0626 55.6928 72.6908 53.7746 76.0469C51.8565 79.403 48.745 81.2177 46.8268 80.0986Z" fill="rgb(96,104,113)" fill-rule="nonzero" />
			<path id="Vector 1211" d="M47.5318 78.8657C46.0024 77.9738 46.0024 75.0814 47.5318 72.4055C49.0612 69.7296 51.5415 68.2828 53.0709 69.1748C54.6002 70.0667 54.6002 72.9591 53.0709 75.6362C51.5403 78.3121 49.0612 79.7577 47.5318 78.8657Z" fill="rgb(114,123,132)" fill-rule="nonzero" />
			<path id="Vector 1212" d="M48.4862 77.1955C47.4838 76.6111 47.4838 74.7159 48.4862 72.9616C49.4886 71.2084 51.1129 70.2608 52.1153 70.8452C53.1177 71.4296 53.1177 73.3247 52.1153 75.0791C51.1129 76.8323 49.4886 77.7798 48.4862 77.1955Z" fill="rgb(171,184,185)" fill-rule="nonzero" />
			<path id="Vector 1213" d="M48.5154 72.8421C47.9733 73.7897 47.7273 74.7775 47.7718 75.5784C48.4756 75.214 49.1923 74.5078 49.7298 73.5673C50.272 72.6197 50.5179 71.6319 50.4734 70.8311C49.7708 71.1966 49.053 71.9016 48.5154 72.8421Z" fill="rgb(96,104,113)" fill-rule="nonzero" />
			<g id="Group 121">
				<path id="Vector 1214" d="M54.2525 53.0532L38.4398 44.9119L37.9562 48.0243L23.7338 56.0733L36.5345 63.5308L54.2525 53.0532Z" opacity="0.660000026" fill="rgb(92,99,105)" fill-rule="nonzero" />
				<path id="Vector 1215" d="M42.59 60.8857L47.8854 57.7543L47.8854 54.9731L42.59 58.0572L42.59 60.8857Z" opacity="0.660000026" fill="rgb(17,18,23)" fill-rule="nonzero" />
				<g id="Group 122">
					<path id="Vector 1216" d="M41.1461 56.7868L41.1121 58.9268L33.8387 54.6858L33.8387 52.5659L41.1461 56.7868Z" fill="rgb(146,148,151)" fill-rule="nonzero" />
					<path id="Vector 1217" d="M48.3996 44.0813L46.5856 45.1413L39.2924 40.8908L41.1122 39.8403L48.3996 44.0813Z" fill="rgb(64,64,65)" fill-rule="nonzero" />
					<path id="Vector 1218" d="M46.5856 45.1413L46.5856 53.6256L39.3357 49.3953L39.2924 40.8909L46.5856 45.1413Z" fill="rgb(146,148,151)" fill-rule="nonzero" />
					<path id="Vector 1219" d="M48.3995 44.0815L48.3855 54.681L41.1121 58.9268L41.1461 56.7867L46.5856 53.6258L46.5856 45.1415L48.3995 44.0815Z" fill="rgb(64,64,65)" fill-rule="nonzero" />
					<path id="Vector 1220" d="M46.5856 53.6258L41.1461 56.7868L33.8387 52.5659L39.3356 49.3955L46.5856 53.6258Z" fill="rgb(146,148,151)" fill-rule="nonzero" />
				</g>
				<path id="Vector 1221" d="M42.6099 59.9524L39.5125 58.3199L39.564 58.0229L41.1121 58.9268L42.59 58.0572L42.6099 59.9524Z" fill="rgb(54,59,64)" fill-rule="nonzero" />
			</g>
			<path id="Vector 1222" d="M14.4205 52.6545L17.5624 36.3684L18.2767 36.8144L15.3339 52.1896L14.4205 52.6545Z" fill="rgb(64,64,65)" fill-rule="nonzero" />
			<path id="Vector 1223" d="M15.3339 52.1895L14.4205 52.6544L32.6045 63.2503L32.9652 62.9972L33.0729 62.5169L15.3339 52.1895Z" fill="rgb(161,173,186)" fill-rule="nonzero" />
			<path id="Vector 1224" d="M56.5864 50.6907L57.4998 51.1556L38.0745 62.2212L38.1436 61.4428L56.5864 50.6907Z" fill="rgb(161,173,186)" fill-rule="nonzero" />
			<path id="Vector 1225" d="M57.4447 36.8086L56.5886 37.309L56.5863 50.6909L57.4997 51.1558L57.4447 36.8086Z" fill="rgb(101,109,118)" fill-rule="nonzero" />
			<path id="Vector 1226" d="M35.9853 47.1809L32.9698 63.0044L14.8818 52.457L17.8973 36.592L35.9853 47.1809Z" opacity="0.660000026" fill="rgb(138,176,195)" fill-rule="nonzero" />
			<path id="Vector 1227" d="M15.3339 52.1895C15.3339 52.1895 19.1058 50.182 20.4654 50.1855C24.9294 50.1974 35.9829 56.4388 37.1774 59.2389C37.8507 60.8181 34.6901 63.4562 34.6901 63.4562L15.3339 52.1895Z" opacity="0.660000026" fill="rgb(92,99,105)" fill-rule="nonzero" />
			<path id="Vector 1228" d="M57.0641 37.032L57.0583 50.9202L56.9728 50.9699L38.1131 61.8119L39.3977 47.331L45.0668 44.027L57.0641 37.032Z" opacity="0.660000026" fill="rgb(138,176,195)" fill-rule="nonzero" />
			<path id="Vector 1229" d="M38.1119 46.5314L34.3236 65.3302L34.3236 81.9191L41.433 77.7728C41.433 77.7728 41.2574 69.5818 48.6631 65.2639C56.0641 60.9449 55.6577 69.4753 55.6577 69.4753L59.2095 67.4027L59.2095 34.2249L38.1119 46.5314ZM57.0583 50.9215L56.9728 50.9723L38.1119 61.8144L39.3966 47.3335L45.0656 44.0282L57.0618 37.0333L57.0583 50.9215Z" fill="rgb(64,64,65)" fill-rule="nonzero" />
			<path id="Vector 1230" d="M16.5576 34.2249L13 52.8876L13 69.4765L34.3341 81.9191L34.3341 65.3302L38.1225 46.5314L16.5576 34.2249ZM32.9792 63.0044L14.8912 52.457L17.9067 36.592L35.9947 47.1797L32.9792 63.0044Z" fill="rgb(75,82,89)" fill-rule="nonzero" />
			<path id="Vector 1231" d="M30.7835 73.6903C30.7179 73.727 30.6523 73.7565 30.5833 73.7766C29.7764 74.0286 28.6054 73.268 27.8512 71.9477C27.0362 70.5211 27.0233 68.982 27.8266 68.5135C27.9039 68.4674 27.9859 68.4354 28.0679 68.4141C28.8747 68.1988 30.0176 68.9607 30.7589 70.2549C31.574 71.684 31.5857 73.223 30.7835 73.6903Z" fill="rgb(255,229,66)" fill-rule="nonzero" />
			<path id="Vector 1232" d="M18.347 66.3866C18.2814 66.4232 18.2158 66.4528 18.1467 66.4729C17.3399 66.7249 16.1688 65.9642 15.4147 64.644C14.5996 63.2162 14.5868 61.6771 15.3901 61.2098C15.4674 61.1649 15.5494 61.1317 15.6313 61.1104C16.4382 60.8951 17.5811 61.657 18.3224 62.9512C19.1374 64.3802 19.1492 65.9193 18.347 66.3866Z" fill="rgb(255,229,66)" fill-rule="nonzero" />
			<path id="Vector 1233" d="M25.7902 63.2244L25.7902 64.9657L21.524 62.4779L21.524 60.8193L25.7902 63.2244Z" fill="rgb(177,223,222)" fill-rule="nonzero" />
			<path id="Vector 1234" d="M34.3693 80.0487L13.0351 67.605L13.0246 69.4693L34.3587 81.9131L34.3693 80.0487Z" fill="rgb(64,64,65)" fill-rule="nonzero" />
			<path id="Vector 1235" d="M34.3693 78.4128L13.0351 65.9702L13.0246 66.4706L34.3587 78.9144L34.3693 78.4128Z" fill="rgb(64,64,65)" fill-rule="nonzero" />
			<path id="Vector 1236" d="M59.2106 34.2248L38.1119 46.5314L16.5483 34.2248L37.8812 21.7822L59.2106 34.2248Z" fill="rgb(146,148,151)" fill-rule="nonzero" />
			<path id="Vector 1237" d="M59.2106 34.2249L62.1055 32.4966L62.1055 65.6756L59.2106 63.9875L59.2106 34.2249Z" opacity="0.150000006" fill="rgb(0,73,67)" fill-rule="nonzero" />
			<path id="Vector 1238" d="M93 14.5188L62.1055 65.6756L62.1055 32.4966L93 14.5188Z" opacity="0.150000006" fill="rgb(0,96,89)" fill-rule="nonzero" />
			<path id="Vector 1239" d="M59.2107 34.2249L34.3248 81.9203L34.3341 65.3302L38.1119 46.5314L59.2107 34.2249Z" opacity="0.150000006" fill="rgb(146,148,151)" fill-rule="nonzero" />
			<path id="Vector 1240" d="M68.1095 0L37.2137 17.973L62.1055 32.4977L43.4461 20.4183C41.8452 19.382 41.8452 17.0196 43.4449 15.9833L68.1095 0Z" fill="rgb(255,255,255)" fill-rule="nonzero" />
			<path id="Vector 1241" d="M37.8812 21.7822L16.5471 34.226L38.1119 46.5326L21.373 35.9284C20.1235 35.1369 20.1141 33.3009 21.3554 32.4953L37.8812 21.7822Z" fill="rgb(255,255,255)" fill-rule="nonzero" />
		</g>
	</g>
</svg>
